<svg id="Ebene_1" data-name="Ebene 1" xmlns="http://www.w3.org/2000/svg" xmlns:xlink="http://www.w3.org/1999/xlink" width="68px" height="92px" viewBox="0 0 67.99 92">
  <defs>
    <style>.cls-1,.cls-4{fill:none;}.cls-2{fill:#000000;}.cls-3{clip-path:url(#clip-path);}.cls-4{stroke:#000000;stroke-miterlimit:3.86;stroke-width:0.41px;}</style>
    <clipPath id="clip-path" transform="translate(0 0)">
      <rect class="cls-1" width="68" height="92" />
    </clipPath>
  </defs>
  <title>logo_cb</title>
  <polygon class="cls-2" points="16.83 23.1 0.25 46 16.83 68.9 33.4 68.9 16.43 46 33.4 23.1 16.83 23.1" />
  <g class="cls-3">
    <polygon class="cls-4" points="33.4 68.89 16.43 46 33.4 23.1 16.83 23.1 0.25 46 16.83 68.89 33.4 68.89" />
  </g>
  <path class="cls-2" d="M44.85,91.79h0ZM34.59.21,51.17,23.1,34.59,46,51.17,68.9,34.59,91.79H50.77l17-22.9L50.77,46l17-22.9L50.77.21Z" transform="translate(0 0)" />
  <g class="cls-3">
    <polygon class="cls-4" points="44.85 91.79 50.77 91.79 67.74 68.89 50.77 46 67.74 23.1 50.77 0.2 34.59 0.2 51.16 23.1 34.59 46 51.16 68.89 34.59 91.79 50.77 91.79 44.85 91.79" />
  </g>
</svg>