<?xml version="1.0" encoding="utf-8"?>
<!-- Generator: Adobe Illustrator 23.0.1, SVG Export Plug-In . SVG Version: 6.00 Build 0)  -->
<svg version="1.1" id="Layer_1" xmlns="http://www.w3.org/2000/svg" xmlns:xlink="http://www.w3.org/1999/xlink" x="0px" y="0px"
	 viewBox="0 0 1128.2 350.5" style="enable-background:new 0 0 1128.2 350.5;" xml:space="preserve">
<style type="text/css">
	.st0{fill:#280071;}
	.st1{fill:url(#SVGID_1_);}
	.st2{fill:url(#SVGID_2_);}
	.st3{fill:url(#SVGID_3_);}
	.st4{fill:#7D55C7;}
</style>
<g>
	<path class="st0" d="M394,263.3c12,0,20.8-1.8,26.2-5.6c5.5-3.7,8.2-8.9,8.2-15.7c0-4-0.9-7.5-2.8-10.4s-4.5-5.5-8-7.9
		c-3.4-2.3-7.6-4.5-12.6-6.5c-4.9-2-10.6-4-17-5.9c-6.4-2.1-12.5-4.4-18.4-6.9s-11.1-5.6-15.6-9.3s-8.1-8.1-10.9-13.3
		c-2.7-5.2-4.1-11.4-4.1-18.6c0-15.1,5.7-27,17.2-35.6s27.1-12.9,46.9-12.9c11.5,0,21.7,1.2,30.6,3.5s15.9,4.9,21.1,7.6l-10.3,24.6
		c-6-3.1-12.6-5.4-19.7-7c-7.2-1.6-14.5-2.4-22.1-2.4c-9,0-16,1.7-21.1,5.1c-5,3.4-7.6,8.1-7.6,14.3c0,3.7,0.8,6.9,2.5,9.5
		c1.7,2.7,4.1,5,7.2,7.1s6.7,4,10.9,5.8c4.1,1.8,8.7,3.5,13.6,5.1c8.7,2.9,16.4,5.8,23.2,8.8c6.8,3,12.5,6.5,17.2,10.6
		s8.3,8.9,10.7,14.5c2.5,5.6,3.7,12.3,3.7,20.2c0,15.1-5.9,26.9-17.6,35.2c-11.8,8.3-28.9,12.4-51.5,12.4c-7.6,0-14.5-0.4-20.8-1.3
		s-11.8-2-16.7-3.3c-4.9-1.3-9.1-2.6-12.6-4s-6.4-2.6-8.5-3.7l9.8-24.9c4.8,2.4,11.2,4.8,19.3,7.2
		C372.7,262.1,382.5,263.3,394,263.3"/>
	<path class="st0" d="M540.5,156.5c10.6,0,19.5,1.2,26.8,3.6c7.2,2.4,13,5.8,17.4,10.1c4.3,4.3,7.4,9.6,9.3,15.8
		c1.9,6.2,2.8,13,2.8,20.4V283c-4.9,1-12.4,2.1-22.4,3.5s-21.2,2.1-33.8,2.1c-8.3,0-15.9-0.7-22.8-2.2c-6.9-1.5-12.8-3.8-17.6-7
		c-4.9-3.2-8.7-7.4-11.4-12.6c-2.7-5.2-4.1-11.5-4.1-19.1c0-7.2,1.5-13.4,4.6-18.4s7.3-9.1,12.6-12.2c5.3-3.1,11.4-5.4,18.4-6.8
		c7-1.4,14.3-2.1,21.9-2.1c3.5,0,7.2,0.2,11.1,0.6c3.9,0.4,8,1.1,12.5,2.1v-4.8c0-3.4-0.4-6.6-1.3-9.7c-0.9-3.1-2.4-5.8-4.6-8.1
		c-2.2-2.3-5.1-4.1-8.7-5.4c-3.6-1.3-8.2-1.9-13.6-1.9c-7.4,0-14.2,0.5-20.4,1.5s-11.2,2.1-15.1,3.4l-4-23.7
		c4.1-1.3,10-2.6,17.8-3.9C523.4,157.2,531.7,156.5,540.5,156.5 M543.2,265.5c9.9,0,17.4-0.5,22.5-1.5v-32.4c-1.8-0.5-4.3-1-7.7-1.5
		s-7.1-0.7-11.1-0.7c-3.5,0-7.1,0.2-10.7,0.7c-3.6,0.5-6.9,1.4-9.8,2.7c-2.9,1.3-5.3,3.1-7,5.4c-1.8,2.3-2.7,5.3-2.7,8.8
		c0,6.9,2.4,11.7,7.2,14.4C528.6,264.2,535,265.5,543.2,265.5"/>
	<path class="st0" d="M628.8,163.7c6.2-1.6,14.2-3.1,24.1-4.6c9.9-1.5,20.8-2.2,32.9-2.2c11.3,0,20.8,1.4,28.4,4.2
		c7.6,2.8,13.7,6.8,18.2,11.8c4.5,5.1,7.7,11.2,9.5,18.4c1.9,7.2,2.8,15,2.8,23.6v71h-32.1v-66.4c0-6.8-0.5-12.5-1.5-17.3
		c-1-4.7-2.6-8.6-4.8-11.6s-5.2-5.2-9-6.5c-3.8-1.4-8.4-2.1-13.9-2.1c-4.1,0-8.3,0.2-12.7,0.7s-7.7,0.9-9.8,1.2v102h-32.1
		L628.8,163.7L628.8,163.7z"/>
	<path class="st0" d="M904.4,222.7c0,10.1-1.6,19.3-4.9,27.4c-3.3,8.1-7.9,15.1-14,20.9c-6.1,5.8-13.5,10.2-22.1,13.3
		c-8.7,3.1-18.5,4.6-29.4,4.6c-10.6,0-20.7-0.7-30.3-2.2c-9.6-1.4-17.6-3.1-24-4.8V108.8h32.1v55c3.7-1.8,8.3-3.4,13.6-4.8
		c5.4-1.4,11.3-2.2,17.9-2.2c9.7,0,18.4,1.6,26.1,4.7c7.7,3.1,14.1,7.6,19.2,13.4c5.1,5.8,9.1,12.8,11.8,20.9
		C903,203.9,904.4,212.9,904.4,222.7 M871.5,222.3c0-12.4-2.7-22.2-8.1-29.5c-5.4-7.2-13.9-10.9-25.6-10.9c-5.3,0-10.3,0.7-15,2.2
		s-8.4,3.1-11.3,4.8v72.7c2.3,0.5,5.3,0.9,8.9,1.3c3.6,0.4,8,0.6,13.1,0.6c11.8,0,21.1-3.7,27.8-11
		C868.2,245.3,871.5,235.1,871.5,222.3"/>
	<path class="st0" d="M970,122.5c0,5.5-1.9,9.8-5.8,13c-3.9,3.2-8.5,4.8-13.8,4.8c-5.5,0-10.2-1.6-14-4.8c-3.9-3.2-5.8-7.6-5.8-13
		c0-5.6,1.9-10.1,5.8-13.3c3.9-3.2,8.6-4.8,14-4.8c5.3,0,9.9,1.6,13.8,4.8S970,116.8,970,122.5 M966.6,285.8h-32.1V159.4h32.1V285.8
		z"/>
	<path class="st0" d="M1128.2,222.5c0,10-1.6,19.1-4.8,27.3c-3.2,8.2-7.7,15.2-13.5,21s-12.9,10.3-21.1,13.5s-17.3,4.8-27.2,4.8
		c-9.9,0-18.9-1.6-27-4.8c-8.1-3.2-15.1-7.7-20.9-13.5c-5.8-5.8-10.4-12.8-13.6-21c-3.3-8.2-4.9-17.3-4.9-27.3s1.6-19,4.9-27.2
		c3.3-8.1,7.9-15.1,13.8-20.9c5.9-5.8,12.9-10.3,21.1-13.4c8.1-3.1,17-4.7,26.8-4.7c9.7,0,18.7,1.6,26.9,4.7
		c8.2,3.1,15.2,7.6,21.1,13.4c5.8,5.8,10.4,12.8,13.7,20.9C1126.6,203.5,1128.2,212.5,1128.2,222.5 M1095.4,222.5
		c0-12.6-3-22.5-8.9-29.8s-14.2-11-24.8-11c-10.6,0-18.9,3.7-24.8,11s-8.9,17.3-8.9,29.8c0,12.7,3,22.8,8.9,30.2
		c5.9,7.4,14.2,11.1,24.8,11.1c10.6,0,18.9-3.7,24.8-11.1C1092.4,245.3,1095.4,235.2,1095.4,222.5"/>
	
		<linearGradient id="SVGID_1_" gradientUnits="userSpaceOnUse" x1="73.9201" y1="57.987" x2="363.7096" y2="274.2146" gradientTransform="matrix(1 0 0 -1 0 349.89)">
		<stop  offset="0.1823" style="stop-color:#937CD0"/>
		<stop  offset="0.191" style="stop-color:#8C7CD0"/>
		<stop  offset="0.2634" style="stop-color:#5B79CE"/>
		<stop  offset="0.3318" style="stop-color:#3377CD"/>
		<stop  offset="0.3943" style="stop-color:#1775CC"/>
		<stop  offset="0.4488" style="stop-color:#0674CB"/>
		<stop  offset="0.4892" style="stop-color:#0074CB"/>
		<stop  offset="0.5943" style="stop-color:#0C88C9"/>
		<stop  offset="0.81" style="stop-color:#2CBEC6"/>
		<stop  offset="0.8854" style="stop-color:#38D2C5"/>
	</linearGradient>
	<path class="st1" d="M317.7,13.5C291.3,3.8,267.2-0.7,246,0.1c-21.5,0.8-39.9,7-54.9,18.4c-10.3,7.9-16.3,18.1-17.8,30.3
		c-2.4,20.2,8.3,41.1,15.8,53c-16.9,2.1-51.3,6.5-95.3,13.2c-53.3,8.2-87.2,29.3-93,57.9c-3.3,16.3,2.6,34.1,17.5,52.9
		c15.7,19.7,41.5,40.7,76.9,62.5c47,28.9,85.6,47.2,114.7,54.4c9.7,2.4,18.5,3.6,26.4,3.6c14.7,0,26.2-4.2,34.3-12.6
		c17.8-18.5,17.1-55.1-2-108.9c-14.9-41.8-37.3-83.5-55.3-111.9c5.2-0.5,10.6-1,16.2-1.6c28.1-2.7,59.9-5.8,87.4-11.3
		c43.9-8.8,65.9-20.9,67.1-37.1C385.4,46.3,364.3,30.6,317.7,13.5z M260.8,324.1c-8.7,9-24.6,10.7-47.4,5.1
		c-27.8-6.9-65-24.6-110.8-52.8c-32.6-20-56.6-39.2-71.4-57c-4.4-6.3-6.4-10.5-8-15.2c-2.8-8-1-15.9,4-17.6c1.8-0.6,3.8-0.3,5.7,0.7
		l1.6,0.7l11.9,6.3l183.4,105.9c3.6,2.1,8.2,0.8,10.3-2.8l0,0c2.1-3.6,0.8-8.2-2.8-10.3L38,172.3l0,0c-2.3-1.4-4-3.1-4.6-5.4
		c-1.5-6.4,5.9-13.6,16.5-15.9c6.8-1.5,12-1.1,16.5,1.4l5.7,3.2L209.6,235c0.4,0.2,0.7,0.4,1.1,0.5c0.9,0.4,2,0.7,3.1,0.7
		c4.1,0,7.4-3.3,7.4-7.4c0-2.5-1.2-4.7-3.1-6c-0.3-0.3-0.6-0.5-1-0.7L92,149.5c-2-1.3-3.4-3-3.9-5c-1.3-6,5.5-12.6,15.3-14.8
		c6.3-1.4,12.1-0.6,16.2,1.7l5.6,3.2l63.3,36.5c3.6,2.1,8.2,0.8,10.3-2.8l0,0c2.1-3.6,0.8-8.2-2.8-10.3l-49.7-28.7l0,0
		c-0.6-0.4-1.4-1.2-1.7-1.9c-0.8-2.4,1.9-5.4,6-6.7c0.5-0.1,1.8-0.4,2.5-0.5c22.1-3,37.9-4.9,45-5.8
		C242.8,182.5,289.9,293.9,260.8,324.1z M204.9,99.9L204.9,99.9h-0.3c-5.6-7.9-19.9-30-17.6-49.5c1-8.5,5.1-15.4,12.4-20.9
		c12.7-9.6,28.5-14.9,47-15.5c1.4,0,2.8-0.1,4.1-0.1c18.4,0,39.3,4.3,62.3,12.7c21.4,7.8,37.1,15.4,46.9,22.4c1.9,1.4,3.6,2.7,5,4
		c0.5,0.5,0.9,1,1.1,1.6c1.2,3.1-1.9,7.1-7,9c-3.2,1.2-6.4,1.4-8.7,0.5L257,28c-2.7-1-5.7,0.3-6.7,3l-0.1,0.2c-1,2.7,0.3,5.7,3,6.7
		l80.6,31c1,0.4,1.8,1.1,2.2,2c1.1,2.8-1.6,6.4-6.2,8.2c-2.9,1.2-5.9,1.3-7.9,0.5l-3.7-1.3l0,0l-100-38.5c-2.7-1-5.8,0.3-6.9,3l0,0
		c-1,2.7,0.3,5.8,3,6.9l76.5,29.4c1.2,0.5,2.1,1.3,2.5,2.3c1.2,2.9-1.7,6.9-6.6,8.8c-3.1,1.3-6,1.3-8.2,0.4L213,65.4
		c-2.7-1-5.7,0.3-6.8,3l-0.1,0.1c-1,2.7,0.3,5.7,3,6.8L242.2,88c0.8,0.3,1.3,0.9,1.6,1.6c0.8,2.1-1.1,5.1-4.6,6.2
		c-1.1,0.4-2,0.5-2.9,0.7c-2.8,0.3-5.5,0.5-8.2,0.8C220.1,98.4,212.3,99.1,204.9,99.9z"/>
	
		<linearGradient id="SVGID_2_" gradientUnits="userSpaceOnUse" x1="173.9514" y1="303.7036" x2="201.0508" y2="249.2811" gradientTransform="matrix(1 0 0 -1 0 349.89)">
		<stop  offset="0.2563" style="stop-color:#312782;stop-opacity:0"/>
		<stop  offset="1" style="stop-color:#312782;stop-opacity:0.7"/>
	</linearGradient>
	<path class="st2" d="M189.2,101.7l15.5-1.8c0,0-23-31.9-17-52.7l-14.3,1.6C173.3,48.8,168.5,69.2,189.2,101.7z"/>
	
		<linearGradient id="SVGID_3_" gradientUnits="userSpaceOnUse" x1="238.5789" y1="180.0168" x2="204.7607" y2="237.7989" gradientTransform="matrix(1 0 0 -1 0 349.89)">
		<stop  offset="0.2397" style="stop-color:#312782;stop-opacity:0"/>
		<stop  offset="0.9999" style="stop-color:#312782;stop-opacity:0.7"/>
	</linearGradient>
	<path class="st3" d="M198.1,114.6l15.4-1.7c0,0,17.2,27.1,29.7,52.7l-13.7,3.5C229.5,169.1,214.8,139.6,198.1,114.6z"/>
	<path class="st4" d="M633.2,350.3L627,341h-4.6v9.3h-3v-24.5h8.7c5.6,0,8.1,3.2,8.1,7.6c0,4.2-2.3,6.5-5.8,7.3l0,0l6.5,9.6H633.2z
		 M622.4,338.2h4.9c4.1,0,5.8-2.1,5.8-4.9c0-3.1-2-4.8-5.4-4.8h-5.3V338.2z"/>
	<polygon class="st4" points="643.2,325.9 658.2,325.9 658.2,328.6 646.3,328.6 646.3,336.8 656.1,336.8 656.1,339.5 646.3,339.5 
		646.3,347.6 659,347.6 659,350.3 643.2,350.3 	"/>
	<path class="st4" d="M664,346.7l1.9-2.3c1.8,2.2,4.4,3.2,6.8,3.2c3,0,5-1.4,5-3.8c0-2.8-2.2-3.5-5.5-4.7c-3.6-1.3-7.3-2.9-7.3-7.1
		c0-3.6,3.3-6.4,7.5-6.5c2.7,0,5.4,1,7.7,2.9l-1.8,2.3c-1.9-1.6-4.1-2.4-5.9-2.4c-2.3,0-4.3,1.2-4.3,3.5s2.2,3.2,5.2,4.4
		c4.1,1.6,7.6,2.7,7.6,7.3c0,4.5-4,6.9-8.2,6.9C669.6,350.5,666.4,349.3,664,346.7"/>
	<polygon class="st4" points="687.4,325.9 702.4,325.9 702.4,328.6 690.4,328.6 690.4,336.8 700.2,336.8 700.2,339.5 690.4,339.5 
		690.4,347.6 703.1,347.6 703.1,350.3 687.4,350.3 	"/>
	<path class="st4" d="M723.8,344.3h-10.9l-2.2,6h-3.2l9.3-24.5h3l9.3,24.5H726L723.8,344.3z M722.8,341.7l-4.5-12.2h-0.1l-4.4,12.2
		H722.8z"/>
	<path class="st4" d="M748.7,350.3l-6.2-9.3h-4.6v9.3h-3v-24.5h8.7c5.6,0,8.1,3.2,8.1,7.6c0,4.2-2.3,6.5-5.8,7.3l0,0l6.5,9.6H748.7z
		 M737.9,338.2h4.9c4.1,0,5.8-2.1,5.8-4.9c0-3.1-2-4.8-5.4-4.8h-5.3V338.2z"/>
	<path class="st4" d="M757,338.2c0-7,4.3-12.6,12.2-12.6c3.4,0,6.9,1.4,9.5,4.7l-2.2,1.9c-1.9-2.3-4.5-3.7-7.3-3.7
		c-5.6,0-9.1,4-9.1,9.7c0,5.8,3.9,9.4,9.1,9.4c3.2,0,5.6-1.5,7.3-3.6l2.2,1.9c-2.1,2.7-5.2,4.6-9.5,4.6
		C762.5,350.5,757,346.2,757,338.2"/>
	<polygon class="st4" points="784.8,325.9 787.8,325.9 787.8,337.3 800.6,337.3 800.6,325.9 803.6,325.9 803.6,350.3 800.6,350.3 
		800.6,340.1 787.8,340.1 787.8,350.3 784.8,350.3 	"/>
	<path class="st4" d="M835.9,348c-1.7,1.6-3.8,2.5-6.8,2.5c-4.3,0-7.8-2.9-7.8-7.2c0-3.1,1.9-5.7,4.6-7.2l-3-3.5
		c0.3-4,3.2-6.9,7.3-6.9c3.9,0,6.2,2.4,7.1,4.6l-2.4,0.9c-0.7-1.6-2.1-3-4.5-3c-2.8,0-4.3,1.8-4.5,3.9l10,11.9
		c0.9-1.5,1.3-3.4,1.3-5l2.7-0.1c0,2.3-0.6,5.1-2.2,7.3l3.4,4.1h-3.4L835.9,348z M829.4,347.8c2.1,0,3.7-0.7,4.9-1.8l0,0l-6.6-7.9
		c-2.2,1-3.4,3-3.4,5.1C824.3,345.9,826.4,347.8,829.4,347.8"/>
	<path class="st4" d="M858.2,325.9h7.3c7.7,0,12.7,5,12.7,12.3c0,7.2-4.8,12.2-12.6,12.2h-7.4V325.9z M865.5,347.6
		c5.9,0,9.7-4,9.7-9.5c0-5.6-3.9-9.5-9.6-9.5h-4.4v19H865.5z"/>
	<rect x="885.2" y="325.9" class="st4" width="3" height="24.5"/>
	<path class="st4" d="M910.4,344.3h-10.9l-2.2,6h-3.2l9.3-24.5h3l9.3,24.5h-3.2L910.4,344.3z M909.4,341.7l-4.5-12.2h-0.1l-4.4,12.2
		H909.4z"/>
	<path class="st4" d="M940.9,337.7v9.7c-2.3,1.9-5.8,3.1-9.5,3.1c-7,0-12.2-4.8-12.2-12.4c0-7.2,4.8-12.5,12.1-12.5
		c3.3,0,6.7,1.1,9.3,3.9l-2.1,1.8c-2-1.9-4.4-2.8-7.2-2.8c-5.1,0-9,3.8-9,9.6c0,5.5,3.6,9.6,9.1,9.6c2.4,0,4.7-0.6,6.5-1.9v-5.4
		h-7.1v-2.8L940.9,337.7L940.9,337.7z"/>
	<polygon class="st4" points="968.1,325.9 968.1,350.3 965,350.3 951.3,331 951.2,331 951.2,350.3 948.2,350.3 948.2,325.9 
		951.2,325.9 965,345.3 965.1,345.3 965.1,325.9 	"/>
	<path class="st4" d="M974.9,338.1c0-7.1,5-12.5,12.3-12.5c6.9,0,12.2,5,12.2,12.5c0,7.4-5.3,12.4-12.2,12.4
		C979.9,350.5,974.9,345.1,974.9,338.1 M996.3,338.1c0-5.7-4-9.6-9.1-9.6c-5.5,0-9.2,4.3-9.2,9.6c0,5.3,3.7,9.6,9.2,9.6
		C992.3,347.7,996.3,343.7,996.3,338.1"/>
	<path class="st4" d="M1004.5,346.7l1.9-2.3c1.8,2.2,4.4,3.2,6.8,3.2c3,0,5-1.4,5-3.8c0-2.8-2.2-3.5-5.5-4.7
		c-3.6-1.3-7.3-2.9-7.3-7.1c0-3.6,3.3-6.4,7.5-6.5c2.7,0,5.4,1,7.7,2.9l-1.8,2.3c-1.9-1.6-4.1-2.4-5.9-2.4c-2.3,0-4.3,1.2-4.3,3.5
		s2.2,3.2,5.2,4.4c4.1,1.6,7.6,2.7,7.6,7.3c0,4.5-4,6.9-8.2,6.9C1010.1,350.5,1007,349.3,1004.5,346.7"/>
	<polygon class="st4" points="1032.7,328.6 1025.4,328.6 1025.4,325.9 1043.1,325.9 1043.1,328.6 1035.7,328.6 1035.7,350.3 
		1032.7,350.3 	"/>
	<rect x="1049.2" y="325.9" class="st4" width="3" height="24.5"/>
	<path class="st4" d="M1059.2,338.2c0-7,4.3-12.6,12.2-12.6c3.4,0,6.9,1.4,9.5,4.7l-2.2,1.9c-1.9-2.3-4.5-3.7-7.3-3.7
		c-5.6,0-9.1,4-9.1,9.7c0,5.8,3.9,9.4,9.1,9.4c3.2,0,5.6-1.5,7.3-3.6l2.2,1.9c-2.1,2.7-5.2,4.6-9.5,4.6
		C1064.8,350.5,1059.2,346.2,1059.2,338.2"/>
	<path class="st4" d="M1085.5,346.7l1.9-2.3c1.8,2.2,4.4,3.2,6.8,3.2c3,0,5-1.4,5-3.8c0-2.8-2.2-3.5-5.5-4.7
		c-3.6-1.3-7.3-2.9-7.3-7.1c0-3.6,3.3-6.4,7.5-6.5c2.7,0,5.4,1,7.7,2.9l-1.8,2.3c-1.9-1.6-4.1-2.4-5.9-2.4c-2.3,0-4.3,1.2-4.3,3.5
		s2.2,3.2,5.2,4.4c4.1,1.6,7.6,2.7,7.6,7.3c0,4.5-4,6.9-8.2,6.9C1091.1,350.5,1087.9,349.3,1085.5,346.7"/>
</g>
</svg>
